# xmcd
#
# Track frame offsets:
#	182
#	16642
#	35082
#	63880
#	82215
#	107290
#	124260
#	152752
#	170335
#	214430
#
# Disc length: 3592 seconds
#
# Revision: 2
# Processed by: cddbd v1.5.1PL0 Copyright (c) Steve Scherf et al.
# Submitted via: EasyCDDAExtractor 8.2.1.1
#
DISCID=7f0e060a
DTITLE=Various Artist - Southern Rock Classics
DYEAR=2001
DGENRE=Southern Rock
TTITLE0=Allman Brothers Band  - Angeline
TTITLE1=Lynyrd Skynyrd  - You Got That Right
TTITLE2=Atlanta Rhythm Section  - So Into You
TTITLE3=The Outlaws  - Hurry Sundown
TTITLE4=38 Special - Caught Up In You
TTITLE5=Allman Brothers Band  - Straight from the Heart
TTITLE6=Atlanta Rhythm Section  - Imaginary Lover
TTITLE7=38 Special  - If I'd Been The One
TTITLE8=The Outlaws  - Green Grass and High Tides
TTITLE9=Lynyrd Skynyrd - Free Bird
EXTD=YEAR: 2001 ID3G: 56\n
EXTT0=
EXTT1=
EXTT2=
EXTT3=
EXTT4=
EXTT5=
EXTT6=
EXTT7=
EXTT8=
EXTT9=
PLAYORDER=
